<?xml version="1.0" encoding="utf-8"?>
<svg x="0px" y="0px" width="800px" height="600px" viewBox="0 0 800 600" xmlns="http://www.w3.org/2000/svg" xmlns:xlink="http://www.w3.org/1999/xlink">
  <!--Generated by AMDN-->
  <g id="Layer 1">
    <g id="Path">
      <path style="fill:#000000;fill-opacity:1;fill-rule:nonzero;opacity:1;stroke:none;" d="M153.992,283.958 C155.199,284.126,156.406,284.294,157.614,284.322 C171.518,284.635,185.422,284.814,199.327,284.979 C222.393,285.253,245.458,285.448,268.524,285.637 C291.178,285.823,313.832,286.01,336.487,286.128 C340.579,286.149,344.674,285.774,348.766,285.808 C371.099,285.992,393.429,286.559,415.761,286.767 C437.101,286.967,458.442,287.142,479.782,287.317 C492.85,287.425,505.921,287.24,518.991,287.054 C519.573,287.046,520.049,286.59,520.053,286.009 C520.058,285.427,519.591,284.963,519.009,284.946 C505.943,284.546,492.877,284.146,479.809,284.038 C458.469,283.863,437.128,283.687,415.788,283.536 C393.455,283.377,371.119,283.577,348.786,283.394 C344.694,283.36,340.605,282.918,336.513,282.872 C313.86,282.618,291.206,282.432,268.552,282.246 C245.486,282.056,222.42,281.872,199.354,281.766 C185.448,281.703,171.542,281.653,157.635,281.738 C156.427,281.745,155.217,281.894,154.008,282.042 C153.488,282.106,153.065,282.473,153.06,282.992 C153.056,283.511,153.473,283.885,153.992,283.958 z"/>
    </g>
    <g id="Path">
      <path style="fill:#7ac5f3;fill-opacity:1;fill-rule:evenodd;opacity:1;stroke:none;" d="M208.597,151 C222.733,151,234.194,171.595,234.194,197 C234.194,222.405,222.733,243,208.597,243 C194.46,243,183,222.405,183,197 C183,171.595,194.46,151,208.597,151 z"/>
      <path style="fill:#000000;fill-opacity:1;fill-rule:nonzero;opacity:1;stroke:none;" d="M208.597,151.958 C209.122,152.075,209.626,152.221,210.124,152.339 C210.842,152.491,211.557,152.62,212.258,152.846 C212.96,153.062,213.652,153.335,214.335,153.662 C215.699,154.316,217.025,155.19,218.302,156.27 C220.855,158.43,223.212,161.422,225.237,165.089 C229.697,173.158,232.515,184.475,232.502,197 C232.497,203.354,231.766,209.394,230.452,214.852 C228.538,222.816,225.376,229.534,221.53,234.173 C217.668,238.828,213.239,241.346,208.597,241.372 C206.918,241.382,205.227,241.274,203.529,240.732 C202.367,240.378,201.271,239.749,200.194,239.019 C199.118,238.281,198.074,237.4,197.07,236.385 C195.063,234.356,193.222,231.793,191.618,228.799 C188.402,222.809,186.155,215.112,185.17,206.527 C184.814,203.457,184.622,200.27,184.627,197 C184.635,189.895,185.553,183.181,187.174,177.235 C188.784,171.283,191.141,166.128,193.877,162.067 C198.006,155.928,202.99,152.28,208.597,152.055 C208.597,152.022,208.597,151.99,208.597,151.958 z M208.597,149.945 C202.056,149.72,195.881,153.675,191.232,160.239 C188.142,164.61,185.721,170.133,184.011,176.374 C182.311,182.621,181.365,189.615,181.373,197 C181.378,200.398,181.581,203.714,181.975,206.91 C183.087,215.851,185.716,223.825,189.285,230.09 C191.073,233.224,193.102,235.934,195.333,238.128 C196.449,239.225,197.616,240.193,198.83,241.018 C200.042,241.85,201.315,242.497,202.587,243.108 C204.456,243.98,206.472,244.618,208.597,244.628 C214.484,244.654,219.841,241.46,224.115,236.321 C228.407,231.167,231.732,224.009,233.749,215.646 C235.129,209.914,235.89,203.614,235.885,197 C235.872,183.962,232.888,172.15,227.983,163.546 C225.752,159.638,223.118,156.389,220.154,154.015 C218.672,152.829,217.108,151.864,215.477,151.154 C214.662,150.799,213.83,150.508,212.985,150.285 C212.139,150.072,211.284,149.886,210.412,149.854 C209.805,149.844,209.195,149.925,208.597,150.042 C208.597,150.01,208.597,149.978,208.597,149.945 z"/>
    </g>
    <g id="Path">
      <path style="fill:#000000;fill-opacity:1;fill-rule:nonzero;opacity:1;stroke:none;" d="M209.294,282 C209.453,281.689,209.611,281.378,209.628,281.067 C209.828,277.485,209.893,273.903,209.945,270.321 C210.03,264.38,210.036,258.438,210.037,252.497 C210.038,248.382,210.038,244.266,210.015,240.151 C210.015,240.158,210.015,240.166,210.015,240.173 C210.028,238.47,210.07,236.764,210.121,235.054 C210.151,234.006,209.792,232.938,209.843,231.886 C210.012,228.315,210.341,224.738,210.472,221.108 C210.553,218.888,210.597,216.691,210.573,214.509 C210.516,208.99,210.338,203.57,210.215,198.11 C210.142,194.766,209.797,191.413,209.499,188 C209.398,186.84,207.491,186.84,207.39,188 C207.092,191.436,206.857,194.826,206.936,198.184 C207.06,203.666,207.237,209.077,207.341,214.557 C207.382,216.723,207.459,218.899,207.524,221.097 C207.63,224.637,207.601,228.197,207.432,231.772 C207.383,232.824,206.926,233.861,206.868,234.919 C206.777,236.646,206.705,238.381,206.671,240.128 C206.671,240.135,206.671,240.123,206.671,240.15 C206.647,244.266,206.646,248.381,206.645,252.496 C206.644,258.438,206.649,264.379,206.732,270.321 C206.782,273.903,206.846,277.484,207.045,281.066 C207.062,281.377,207.22,281.689,207.379,282 C207.858,282.943,208.814,282.943,209.294,282 z"/>
    </g>
    <g id="Path">
      <path style="fill:#000000;fill-opacity:1;fill-rule:nonzero;opacity:1;stroke:none;" d="M208.445,215.848 C208.595,215.967,208.744,216.078,208.811,216.037 C209.71,215.796,210.497,215.376,211.234,214.93 C212.457,214.182,213.515,213.299,214.487,212.385 C215.442,211.487,216.317,210.554,217.11,209.574 C217.266,209.408,217.133,208.986,217.251,208.789 C218.055,207.858,219.131,207.169,219.983,206.289 C220.783,205.435,221.58,204.577,222.431,203.745 C222.972,203.256,223.308,202.54,223.685,201.801 C224.215,200.764,223.414,199.812,222.315,200.199 C221.488,200.489,220.686,200.825,220.138,201.4 C219.213,202.305,218.365,203.22,217.579,204.141 C216.771,205.12,216.251,206.291,215.439,207.183 C215.26,207.32,214.831,207.232,214.688,207.396 C213.832,208.252,213.02,209.109,212.163,209.915 C211.289,210.737,210.373,211.501,209.399,212.27 C208.811,212.738,208.192,213.185,207.584,213.753 C207.52,213.782,207.537,213.964,207.555,214.152 C207.654,215.205,207.615,215.192,208.445,215.848 z"/>
    </g>
    <g id="Path">
      <path style="fill:#000000;fill-opacity:1;fill-rule:nonzero;opacity:1;stroke:none;" d="M207.855,203.199 C207.886,203.034,207.921,202.87,207.881,202.817 C207.398,202.252,206.9,201.762,206.417,201.241 C205.621,200.378,204.857,199.458,204.126,198.448 C203.408,197.457,202.738,196.38,202.022,195.286 C201.963,195.184,201.896,195.087,201.742,195.039 C201.601,194.984,201.43,194.945,201.321,194.87 C201.191,194.756,201.142,194.596,201.06,194.454 C200.987,194.308,200.918,194.158,200.852,194.007 C200.721,193.704,200.601,193.392,200.483,193.079 C200.247,192.453,200.015,191.818,199.695,191.228 C199.079,190.104,198.416,188.992,197.692,187.913 C197.244,187.254,196.537,186.774,195.825,186.343 C194.829,185.74,193.843,186.54,194.175,187.657 C194.395,188.396,194.57,189.14,194.969,189.741 C195.628,190.722,196.252,191.768,196.892,192.835 C197.229,193.392,197.646,193.913,198.058,194.441 C198.264,194.705,198.47,194.971,198.664,195.244 C198.76,195.38,198.855,195.519,198.945,195.659 C199.026,195.805,199.141,195.931,199.176,196.103 C199.188,196.238,199.137,196.409,199.117,196.562 C199.085,196.723,199.14,196.834,199.202,196.94 C199.837,198.15,200.569,199.318,201.379,200.437 C202.203,201.575,203.125,202.661,204.224,203.577 C204.884,204.128,205.604,204.629,206.433,204.954 C206.507,204.978,206.656,204.891,206.803,204.801 C207.706,204.249,207.655,204.238,207.855,203.199 z"/>
    </g>
    <g id="Path">
      <path style="fill:#000000;fill-opacity:0.117843;fill-rule:nonzero;opacity:1;stroke:none;" d="M214,153 C213.83,152.687,215.719,153.781,216,154 C225,161,233,172.926,233,198 C233,228,216,240,216,240 C216,240,225,214,225,195 C225,178.8,217.214,158.922,214,153 z"/>
    </g>
    <g id="Path">
      <path style="fill:#ffffff;fill-opacity:0.893649;fill-rule:nonzero;mix-blend-mode:soft-light;opacity:1;stroke:none;" d="M214,153 C214,153,189,141,184,196 C181.284,225.877,198,237,198,237 C198,237,183.158,222.893,187,196 C193,154,214,153,214,153 z"/>
    </g>
  </g>
</svg>
