<?xml version="1.0" encoding="utf-8"?>
<svg x="0px" y="0px" width="472px" height="319px" viewBox="0 0 472 319" xmlns="http://www.w3.org/2000/svg" xmlns:xlink="http://www.w3.org/1999/xlink">
  <!--Generated by AMDN-->
  <g id="Layer 1">
    <g id="Path">
      <path style="fill:#000000;fill-opacity:1;fill-rule:nonzero;opacity:1;stroke:none;" d="M47.9921,263.958 C49.199,264.126,50.4059,264.294,51.6139,264.322 C65.5176,264.635,79.4224,264.814,93.3273,264.979 C116.393,265.253,139.458,265.448,162.524,265.637 C185.178,265.823,207.832,266.01,230.487,266.128 C234.579,266.149,238.674,265.774,242.766,265.808 C265.099,265.992,287.429,266.559,309.761,266.767 C331.101,266.967,352.442,267.142,373.782,267.317 C386.85,267.425,399.921,267.24,412.991,267.054 C413.573,267.046,414.049,266.59,414.053,266.009 C414.058,265.427,413.591,264.963,413.009,264.946 C399.943,264.546,386.877,264.146,373.809,264.038 C352.469,263.863,331.128,263.687,309.788,263.536 C287.455,263.377,265.119,263.577,242.786,263.394 C238.694,263.36,234.605,262.918,230.513,262.872 C207.86,262.618,185.206,262.432,162.552,262.246 C139.486,262.056,116.42,261.872,93.3537,261.766 C79.448,261.703,65.5421,261.653,51.6351,261.738 C50.4268,261.745,49.2173,261.894,48.0079,262.042 C47.4879,262.106,47.0647,262.473,47.0605,262.992 C47.0562,263.511,47.4732,263.885,47.9921,263.958 z"/>
    </g>
    <g id="Path">
      <path style="fill:#7ac5f3;fill-opacity:1;fill-rule:evenodd;opacity:1;stroke:none;" d="M102.597,131 C116.733,131,128.194,151.595,128.194,177 C128.194,202.405,116.733,223,102.597,223 C88.4601,223,77,202.405,77,177 C77,151.595,88.4601,131,102.597,131 z"/>
      <path style="fill:#000000;fill-opacity:1;fill-rule:nonzero;opacity:1;stroke:none;" d="M102.597,131.958 C103.122,132.075,103.626,132.221,104.124,132.339 C104.842,132.491,105.557,132.62,106.258,132.846 C106.96,133.062,107.652,133.335,108.335,133.662 C109.699,134.316,111.025,135.19,112.302,136.27 C114.855,138.43,117.212,141.422,119.237,145.089 C123.697,153.158,126.515,164.475,126.502,177 C126.497,183.354,125.766,189.394,124.452,194.852 C122.538,202.816,119.376,209.534,115.53,214.173 C111.668,218.828,107.239,221.346,102.597,221.372 C100.918,221.382,99.2273,221.274,97.5289,220.732 C96.3675,220.378,95.2712,219.749,94.1938,219.019 C93.1183,218.281,92.0737,217.4,91.0703,216.385 C89.0629,214.356,87.2221,211.793,85.6177,208.799 C82.4023,202.809,80.1547,195.112,79.1701,186.527 C78.8139,183.457,78.6222,180.27,78.627,177 C78.6351,169.895,79.553,163.181,81.1738,157.235 C82.7842,151.283,85.1409,146.128,87.8769,142.067 C92.006,135.928,96.9903,132.28,102.597,132.055 C102.597,132.022,102.597,131.99,102.597,131.958 z M102.597,129.945 C96.0559,129.72,89.8811,133.675,85.2323,140.239 C82.1418,144.61,79.7213,150.133,78.0109,156.374 C76.3111,162.621,75.3649,169.615,75.373,177 C75.3778,180.398,75.5809,183.714,75.9745,186.91 C77.0874,195.851,79.7156,203.825,83.2851,210.09 C85.0731,213.224,87.1021,215.934,89.3331,218.128 C90.4488,219.225,91.6156,220.193,92.83,221.018 C94.0425,221.85,95.3147,222.497,96.5868,223.108 C98.4556,223.98,100.472,224.618,102.597,224.628 C108.484,224.654,113.841,221.46,118.115,216.321 C122.407,211.167,125.732,204.009,127.749,195.646 C129.129,189.914,129.89,183.614,129.885,177 C129.872,163.962,126.888,152.15,121.983,143.546 C119.752,139.638,117.118,136.389,114.154,134.015 C112.672,132.829,111.108,131.864,109.477,131.154 C108.662,130.799,107.83,130.508,106.985,130.285 C106.139,130.071,105.285,129.886,104.412,129.854 C103.805,129.844,103.195,129.925,102.597,130.042 C102.597,130.01,102.597,129.978,102.597,129.945 z"/>
    </g>
    <g id="Path">
      <path style="fill:#000000;fill-opacity:1;fill-rule:nonzero;opacity:1;stroke:none;" d="M103.294,262 C103.453,261.689,103.611,261.378,103.628,261.067 C103.828,257.485,103.893,253.903,103.945,250.321 C104.03,244.38,104.036,238.438,104.037,232.497 C104.038,228.382,104.038,224.266,104.015,220.151 C104.015,220.158,104.015,220.166,104.015,220.173 C104.028,218.47,104.07,216.764,104.121,215.054 C104.151,214.006,103.792,212.938,103.843,211.886 C104.012,208.315,104.341,204.738,104.472,201.108 C104.553,198.888,104.597,196.691,104.573,194.509 C104.516,188.99,104.338,183.57,104.215,178.11 C104.142,174.766,103.797,171.413,103.499,168 C103.398,166.84,101.491,166.84,101.39,168 C101.092,171.436,100.857,174.826,100.936,178.184 C101.06,183.666,101.237,189.077,101.341,194.557 C101.382,196.723,101.459,198.899,101.524,201.097 C101.63,204.637,101.601,208.197,101.432,211.772 C101.383,212.824,100.926,213.861,100.868,214.919 C100.777,216.646,100.705,218.381,100.671,220.128 C100.671,220.135,100.671,220.123,100.671,220.15 C100.647,224.266,100.646,228.381,100.645,232.496 C100.644,238.438,100.649,244.379,100.732,250.321 C100.782,253.903,100.846,257.484,101.045,261.066 C101.062,261.377,101.22,261.689,101.379,262 C101.858,262.943,102.814,262.943,103.294,262 z"/>
    </g>
    <g id="Path">
      <path style="fill:#000000;fill-opacity:1;fill-rule:nonzero;opacity:1;stroke:none;" d="M102.445,195.848 C102.595,195.967,102.744,196.078,102.811,196.037 C103.71,195.796,104.497,195.376,105.234,194.93 C106.457,194.182,107.515,193.299,108.487,192.385 C109.442,191.487,110.317,190.554,111.11,189.574 C111.266,189.408,111.133,188.986,111.251,188.789 C112.055,187.858,113.131,187.169,113.983,186.289 C114.783,185.435,115.58,184.577,116.431,183.745 C116.972,183.256,117.308,182.54,117.685,181.801 C118.215,180.764,117.414,179.812,116.315,180.199 C115.488,180.489,114.686,180.825,114.138,181.4 C113.213,182.305,112.365,183.22,111.579,184.141 C110.771,185.12,110.251,186.291,109.439,187.183 C109.26,187.32,108.831,187.232,108.688,187.396 C107.832,188.252,107.02,189.109,106.163,189.915 C105.289,190.737,104.373,191.501,103.399,192.27 C102.811,192.738,102.192,193.185,101.584,193.753 C101.52,193.782,101.537,193.964,101.555,194.152 C101.654,195.205,101.615,195.192,102.445,195.848 z"/>
    </g>
    <g id="Path">
      <path style="fill:#000000;fill-opacity:1;fill-rule:nonzero;opacity:1;stroke:none;" d="M101.855,183.199 C101.886,183.034,101.921,182.87,101.881,182.817 C101.398,182.252,100.9,181.762,100.417,181.241 C99.621,180.378,98.8569,179.458,98.1257,178.448 C97.4079,177.457,96.7377,176.38,96.022,175.286 C95.9627,175.184,95.8955,175.087,95.7421,175.039 C95.6011,174.984,95.4299,174.945,95.3206,174.87 C95.1914,174.756,95.1422,174.596,95.0605,174.454 C94.987,174.308,94.918,174.158,94.8522,174.007 C94.7205,173.704,94.6014,173.392,94.4833,173.079 C94.2472,172.453,94.0149,171.818,93.695,171.228 C93.079,170.104,92.4156,168.992,91.6915,167.913 C91.2443,167.254,90.5368,166.774,89.825,166.343 C88.8286,165.74,87.8428,166.54,88.175,167.657 C88.3951,168.396,88.5696,169.14,88.969,169.741 C89.6275,170.722,90.2522,171.768,90.8922,172.835 C91.2295,173.392,91.6457,173.913,92.0582,174.441 C92.2645,174.705,92.4697,174.971,92.6635,175.244 C92.7604,175.38,92.8545,175.519,92.9445,175.659 C93.0263,175.805,93.141,175.931,93.1763,176.103 C93.1875,176.238,93.1372,176.409,93.1174,176.562 C93.0852,176.723,93.1396,176.834,93.2023,176.94 C93.8374,178.15,94.5691,179.318,95.3788,180.437 C96.2031,181.575,97.1248,182.661,98.2237,183.577 C98.8837,184.128,99.6042,184.629,100.433,184.954 C100.507,184.978,100.656,184.891,100.803,184.801 C101.706,184.249,101.655,184.238,101.855,183.199 z"/>
    </g>
    <g id="Path">
      <path style="fill:#000000;fill-opacity:0.117843;fill-rule:nonzero;opacity:1;stroke:none;" d="M108,133 C107.83,132.687,109.719,133.781,110,134 C119,141,127,152.926,127,178 C127,208,110,220,110,220 C110,220,119,194,119,175 C119,158.8,111.214,138.922,108,133 z"/>
    </g>
    <g id="Path">
      <path style="fill:#ffffff;fill-opacity:0.893649;fill-rule:nonzero;mix-blend-mode:soft-light;opacity:1;stroke:none;" d="M108,133 C108,133,83,121,78,176 C75.2839,205.877,92,217,92,217 C92,217,77.1581,202.893,81,176 C87,134,108,133,108,133 z"/>
    </g>
  </g>
</svg>
